<svg width="48" height="48" viewBox="0 0 48 48" fill="none"
     xmlns="http://www.w3.org/2000/svg">

  <!-- Hollow white bubbles -->
  <circle class="bubble" cx="17" cy="31" r="1.2" stroke="white" stroke-width="1" fill="none" />
  <circle class="bubble" cx="19" cy="27" r="1.2" stroke="white" stroke-width="1" fill="none" />
  <circle class="bubble" cx="21" cy="34" r="1.2" stroke="white" stroke-width="1" fill="none" />

  <!-- Main beaker path in white -->
  <g clip-path="url(#clip0_24_403)">
    <path d="M23.499 11.5H24.999V8.5H15.5V11.5H17L16.999 20.8594L8.38525 34.9453L9.61475 39.5H30.3828L31.6104 34.9531L23.5 20.8662L23.499 11.5ZM16.5 10.5V9.5H23.999V10.5H22.499L22.4997 17.5H17.9993L18 10.5H16.5ZM29.6172 38.5H10.3804L9.46237 35.1001L17.999 21.1406L17.9993 18.5H22.4998L22.5 21.1338L24.4382 24.5H22.5V25.5H25.0139L26.1655 27.5H23.5V28.5H26.7412L27.8928 30.5H24.5V31.5H28.4685L29.6201 33.5H25.5V34.5H30.1958L30.5371 35.0928L29.6172 38.5ZM39.5 13.5V10.5H32.5V13.5H33.5L33.499 35C33.499 35.6632 33.7624 36.2992 34.2314 36.7681C34.7003 37.2371 35.3363 37.5005 35.9995 37.5005C36.6627 37.5005 37.2987 37.2371 37.7676 36.7681C38.2366 36.2992 38.5 35.6632 38.5 35V34.5V33.5L38.4998 31.5H38.5V30.5H38.4998V28.5H38.5V27.5H38.4996L38.4995 25.5H38.5V24.5H38.4995V22.5H38.5V21.5H38.4994L38.4993 19.5H38.5V18.5H38.4993L38.4992 16.5H38.5V15.5H38.499V13.5H39.5ZM37.4993 16.5V18.5H36.5V19.5H37.4993L37.4994 21.5H36.5V22.5H37.4995V24.5H36.5V25.5H37.4995L37.4998 27.5H36.5V28.5H37.4998V30.5H36.5V31.5H37.4999L37.5 33.5H36.5V34.5H37.5V35C37.5 35.398 37.3419 35.7796 37.0605 36.061C36.7791 36.3424 36.3975 36.5005 35.9995 36.5005C35.6015 36.5005 35.2199 36.3424 34.9385 36.061C34.6571 35.7796 34.499 35.398 34.499 35L34.5 12.5H33.5V11.5H38.5V12.5H37.499L37.4991 15.5H36.5V16.5H37.4993Z"
          fill="white"/>
  </g>

  <defs>
    <clipPath id="clip0_24_403">
      <rect width="48" height="48" fill="none"/>
    </clipPath>
  </defs>
</svg>